<?xml version="1.0" standalone="no"?><svg xmlns="http://www.w3.org/2000/svg" viewBox="0 0 1440 320"><path fill="#0099ff" fill-opacity="1" d="M0,288L34.3,282.7C68.6,277,137,267,206,218.7C274.3,171,343,85,411,90.7C480,96,549,192,617,229.3C685.7,267,754,245,823,250.7C891.4,256,960,288,1029,293.3C1097.1,299,1166,277,1234,266.7C1302.9,256,1371,256,1406,256L1440,256L1440,320L1405.7,320C1371.4,320,1303,320,1234,320C1165.7,320,1097,320,1029,320C960,320,891,320,823,320C754.3,320,686,320,617,320C548.6,320,480,320,411,320C342.9,320,274,320,206,320C137.1,320,69,320,34,320L0,320Z"></path></svg>